<svg width="55" height="42" viewBox="0 0 55 42" fill="none" xmlns="http://www.w3.org/2000/svg">
<path d="M27.3726 27.3196C35.9505 27.3196 43.2749 28.7038 43.2749 34.2429C43.2749 39.7797 35.9975 41.2143 27.3726 41.2143C18.7946 41.2143 11.4702 39.8301 11.4702 34.2933C11.4702 28.7542 18.7476 27.3196 27.3726 27.3196ZM41.0877 23.9842C44.3671 23.9223 47.8927 24.3807 49.1956 24.7061C51.9556 25.2584 53.7711 26.3859 54.5232 28.0245C55.1589 29.3697 55.1589 30.9304 54.5232 32.2734C53.3726 34.8149 49.6634 35.6307 48.2218 35.8416C47.9241 35.8874 47.6846 35.6239 47.7159 35.3191C48.4524 28.2766 42.5942 24.9376 41.0787 24.1698C41.0138 24.1355 41.0004 24.0827 41.0071 24.0507C41.0116 24.0277 41.0384 23.9911 41.0877 23.9842ZM13.914 23.9851C13.9632 23.992 13.9879 24.0287 13.9923 24.0493C13.9991 24.0837 13.9856 24.1341 13.923 24.1707C12.4052 24.9385 6.54707 28.2775 7.28354 35.3177C7.31488 35.6248 7.0776 35.886 6.77988 35.8425C5.33828 35.6317 1.62907 34.8158 0.478481 32.2743C-0.159494 30.929 -0.159494 29.3707 0.478481 28.0254C1.23062 26.3868 3.04381 25.2593 5.80389 24.7047C7.10894 24.3816 10.6323 23.9232 13.914 23.9851ZM27.3726 0.5C33.2128 0.5 37.8958 5.2897 37.8958 11.2711C37.8958 17.2502 33.2128 22.0445 27.3726 22.0445C21.5323 22.0445 16.8494 17.2502 16.8494 11.2711C16.8494 5.2897 21.5323 0.5 27.3726 0.5ZM41.6585 2.29625C47.2995 2.29625 51.7295 7.72993 50.2208 13.7824C49.2023 17.857 45.5154 20.5636 41.4078 20.4536C40.9959 20.4421 40.5907 20.4032 40.199 20.3344C39.9147 20.284 39.7714 19.9563 39.9326 19.7133C41.4996 17.3529 42.3927 14.5134 42.3927 11.4654C42.3927 8.28452 41.4167 5.31903 39.7222 2.88752C39.6685 2.81189 39.6282 2.69501 39.6819 2.60793C39.7267 2.53688 39.8095 2.50022 39.8878 2.48188C40.4587 2.36271 41.0452 2.29625 41.6585 2.29625ZM13.3398 2.29602C13.9532 2.29602 14.5397 2.36248 15.1127 2.48165C15.1888 2.49999 15.2739 2.53895 15.3187 2.6077C15.3701 2.69478 15.3321 2.81166 15.2784 2.88729C13.5838 5.31881 12.6078 8.28429 12.6078 11.4652C12.6078 14.5132 13.501 17.3526 15.0679 19.7131C15.2291 19.956 15.0859 20.2838 14.8016 20.3342C14.4076 20.4052 14.0047 20.4419 13.5928 20.4533C9.48511 20.5633 5.79829 17.8568 4.77977 13.7821C3.26878 7.7297 7.69878 2.29602 13.3398 2.29602Z" fill="#8758EA"/>
<path d="M27.3726 27.3196C35.9505 27.3196 43.2749 28.7038 43.2749 34.2429C43.2749 39.7797 35.9975 41.2143 27.3726 41.2143C18.7946 41.2143 11.4702 39.8301 11.4702 34.2933C11.4702 28.7542 18.7476 27.3196 27.3726 27.3196ZM41.0877 23.9842C44.3671 23.9223 47.8927 24.3807 49.1956 24.7061C51.9556 25.2584 53.7711 26.3859 54.5232 28.0245C55.1589 29.3697 55.1589 30.9304 54.5232 32.2734C53.3726 34.8149 49.6634 35.6307 48.2218 35.8416C47.9241 35.8874 47.6846 35.6239 47.7159 35.3191C48.4524 28.2766 42.5942 24.9376 41.0787 24.1698C41.0138 24.1355 41.0004 24.0827 41.0071 24.0507C41.0116 24.0277 41.0384 23.9911 41.0877 23.9842ZM13.914 23.9851C13.9632 23.992 13.9879 24.0287 13.9923 24.0493C13.9991 24.0837 13.9856 24.1341 13.923 24.1707C12.4052 24.9385 6.54707 28.2775 7.28354 35.3177C7.31488 35.6248 7.0776 35.886 6.77988 35.8425C5.33828 35.6317 1.62907 34.8158 0.478481 32.2743C-0.159494 30.929 -0.159494 29.3707 0.478481 28.0254C1.23062 26.3868 3.04381 25.2593 5.80389 24.7047C7.10894 24.3816 10.6323 23.9232 13.914 23.9851ZM27.3726 0.5C33.2128 0.5 37.8958 5.2897 37.8958 11.2711C37.8958 17.2502 33.2128 22.0445 27.3726 22.0445C21.5323 22.0445 16.8494 17.2502 16.8494 11.2711C16.8494 5.2897 21.5323 0.5 27.3726 0.5ZM41.6585 2.29625C47.2995 2.29625 51.7295 7.72993 50.2208 13.7824C49.2023 17.857 45.5154 20.5636 41.4078 20.4536C40.9959 20.4421 40.5907 20.4032 40.199 20.3344C39.9147 20.284 39.7714 19.9563 39.9326 19.7133C41.4996 17.3529 42.3927 14.5134 42.3927 11.4654C42.3927 8.28452 41.4167 5.31903 39.7222 2.88752C39.6685 2.81189 39.6282 2.69501 39.6819 2.60793C39.7267 2.53688 39.8095 2.50022 39.8878 2.48188C40.4587 2.36271 41.0452 2.29625 41.6585 2.29625ZM13.3398 2.29602C13.9532 2.29602 14.5397 2.36248 15.1127 2.48165C15.1888 2.49999 15.2739 2.53895 15.3187 2.6077C15.3701 2.69478 15.3321 2.81166 15.2784 2.88729C13.5838 5.31881 12.6078 8.28429 12.6078 11.4652C12.6078 14.5132 13.501 17.3526 15.0679 19.7131C15.2291 19.956 15.0859 20.2838 14.8016 20.3342C14.4076 20.4052 14.0047 20.4419 13.5928 20.4533C9.48511 20.5633 5.79829 17.8568 4.77977 13.7821C3.26878 7.7297 7.69878 2.29602 13.3398 2.29602Z" fill="url(#paint0_linear_329_2224)" fill-opacity="0.5"/>
<defs>
<linearGradient id="paint0_linear_329_2224" x1="10.0397" y1="-16.4643" x2="63.9873" y2="4.3576" gradientUnits="userSpaceOnUse">
<stop stop-color="#9531E0"/>
<stop offset="1" stop-color="#38ECE9"/>
</linearGradient>
</defs>
</svg>
