<svg width="60" height="54" viewBox="0 0 60 54" fill="none" xmlns="http://www.w3.org/2000/svg">
<path d="M3.4303 54C1.95358 54 0.916468 53.3138 0.318965 51.9414C-0.278538 50.5691 -0.0365845 49.3492 1.04483 48.2818L15.0169 34.4909C15.6416 33.8742 16.3948 33.5379 17.2762 33.4818C18.1577 33.4257 18.9381 33.706 19.6174 34.3227L29.3297 42.5636L48.4134 23.7273H46.3687C45.4032 23.7273 44.5944 23.4044 43.9424 22.7585C43.2903 22.1127 42.9632 21.3144 42.9609 20.3636C42.9609 19.4106 43.2881 18.6123 43.9424 17.9687C44.5967 17.3252 45.4055 17.0022 46.3687 17H56.5922C57.5577 17 58.3676 17.3229 59.0219 17.9687C59.6762 18.6145 60.0023 19.4128 60 20.3636V30.4545C60 31.4076 59.6728 32.207 59.0185 32.8528C58.3642 33.4986 57.5555 33.8204 56.5922 33.8182C55.6266 33.8182 54.8178 33.4953 54.1658 32.8494C53.5138 32.2036 53.1866 31.4053 53.1844 30.4545V28.4364L31.8855 49.4591C31.2608 50.0757 30.5076 50.4121 29.6262 50.4682C28.7447 50.5242 27.9643 50.2439 27.285 49.6272L17.5727 41.3863L5.81577 52.9909C5.53178 53.2712 5.17737 53.51 4.75253 53.7073C4.32769 53.9047 3.88695 54.0022 3.4303 54Z" fill="#8758EA"/>
<path d="M3.4303 54C1.95358 54 0.916468 53.3138 0.318965 51.9414C-0.278538 50.5691 -0.0365845 49.3492 1.04483 48.2818L15.0169 34.4909C15.6416 33.8742 16.3948 33.5379 17.2762 33.4818C18.1577 33.4257 18.9381 33.706 19.6174 34.3227L29.3297 42.5636L48.4134 23.7273H46.3687C45.4032 23.7273 44.5944 23.4044 43.9424 22.7585C43.2903 22.1127 42.9632 21.3144 42.9609 20.3636C42.9609 19.4106 43.2881 18.6123 43.9424 17.9687C44.5967 17.3252 45.4055 17.0022 46.3687 17H56.5922C57.5577 17 58.3676 17.3229 59.0219 17.9687C59.6762 18.6145 60.0023 19.4128 60 20.3636V30.4545C60 31.4076 59.6728 32.207 59.0185 32.8528C58.3642 33.4986 57.5555 33.8204 56.5922 33.8182C55.6266 33.8182 54.8178 33.4953 54.1658 32.8494C53.5138 32.2036 53.1866 31.4053 53.1844 30.4545V28.4364L31.8855 49.4591C31.2608 50.0757 30.5076 50.4121 29.6262 50.4682C28.7447 50.5242 27.9643 50.2439 27.285 49.6272L17.5727 41.3863L5.81577 52.9909C5.53178 53.2712 5.17737 53.51 4.75253 53.7073C4.32769 53.9047 3.88695 54.0022 3.4303 54Z" fill="url(#paint0_linear_329_2249)" fill-opacity="0.5"/>
<path d="M23.002 26.0022C29.7152 26.0022 35.1569 20.6293 35.1569 14.0011C35.1569 7.3729 29.7152 2 23.002 2C16.2888 2 10.847 7.3729 10.847 14.0011C10.847 20.6293 16.2888 26.0022 23.002 26.0022Z" stroke="#8758EA" stroke-width="3" stroke-linecap="round" stroke-linejoin="round"/>
<path d="M23.002 26.0022C29.7152 26.0022 35.1569 20.6293 35.1569 14.0011C35.1569 7.3729 29.7152 2 23.002 2C16.2888 2 10.847 7.3729 10.847 14.0011C10.847 20.6293 16.2888 26.0022 23.002 26.0022Z" stroke="url(#paint1_linear_329_2249)" stroke-opacity="0.5" stroke-width="3" stroke-linecap="round" stroke-linejoin="round"/>
<path d="M26.6485 9.80151C25.8158 8.97943 24.3499 8.40818 23.002 8.37217M23.002 8.37217C21.3975 8.32897 19.9632 9.04544 19.9632 11.0016C19.9632 14.602 26.6485 12.8018 26.6485 16.4021C26.6485 18.4555 24.869 19.3376 23.002 19.2716M23.002 8.37217V6.20117M19.3555 17.6022C20.1382 18.6343 21.5956 19.2224 23.002 19.2716M23.002 19.2716V21.8026" stroke="#8758EA" stroke-width="2.5" stroke-linecap="round" stroke-linejoin="round"/>
<path d="M26.6485 9.80151C25.8158 8.97943 24.3499 8.40818 23.002 8.37217M23.002 8.37217C21.3975 8.32897 19.9632 9.04544 19.9632 11.0016C19.9632 14.602 26.6485 12.8018 26.6485 16.4021C26.6485 18.4555 24.869 19.3376 23.002 19.2716M23.002 8.37217V6.20117M19.3555 17.6022C20.1382 18.6343 21.5956 19.2224 23.002 19.2716M23.002 19.2716V21.8026" stroke="url(#paint2_linear_329_2249)" stroke-opacity="0.5" stroke-width="2.5" stroke-linecap="round" stroke-linejoin="round"/>
<defs>
<linearGradient id="paint0_linear_329_2249" x1="10.9524" y1="1.58333" x2="66.6212" y2="27.3758" gradientUnits="userSpaceOnUse">
<stop stop-color="#9531E0"/>
<stop offset="1" stop-color="#38ECE9"/>
</linearGradient>
<linearGradient id="paint1_linear_329_2249" x1="15.2845" y1="-8.00093" x2="40.5645" y2="-0.685471" gradientUnits="userSpaceOnUse">
<stop stop-color="#9531E0"/>
<stop offset="1" stop-color="#38ECE9"/>
</linearGradient>
<linearGradient id="paint2_linear_329_2249" x1="20.6867" y1="-0.299433" x2="28.7618" y2="0.779059" gradientUnits="userSpaceOnUse">
<stop stop-color="#9531E0"/>
<stop offset="1" stop-color="#38ECE9"/>
</linearGradient>
</defs>
</svg>
