<svg width="67" height="49" viewBox="0 0 67 49" fill="none" xmlns="http://www.w3.org/2000/svg">
<path d="M60.4819 48.3281H67V0.339115H60.4819L60.4819 48.3281Z" fill="#8758EA"/>
<path d="M60.4819 48.3281H67V0.339115H60.4819L60.4819 48.3281Z" fill="url(#paint0_linear_329_2198)" fill-opacity="0.5"/>
<path d="M48.3768 48.3281H54.895L54.895 5.86162H48.3768L48.3768 48.3281Z" fill="#8758EA"/>
<path d="M48.3768 48.3281H54.895L54.895 5.86162H48.3768L48.3768 48.3281Z" fill="url(#paint1_linear_329_2198)" fill-opacity="0.5"/>
<path d="M36.2717 48.3281H42.7899L42.7899 12.0036H36.2717L36.2717 48.3281Z" fill="#8758EA"/>
<path d="M36.2717 48.3281H42.7899L42.7899 12.0036H36.2717L36.2717 48.3281Z" fill="url(#paint2_linear_329_2198)" fill-opacity="0.5"/>
<path d="M24.1811 48.3145H30.6992L30.6992 3.85774H24.1811L24.1811 48.3145Z" fill="#8758EA"/>
<path d="M24.1811 48.3145H30.6992L30.6992 3.85774H24.1811L24.1811 48.3145Z" fill="url(#paint3_linear_329_2198)" fill-opacity="0.5"/>
<path d="M12.0905 48.3281H18.6086L18.6086 16.6694H12.0905L12.0905 48.3281Z" fill="#8758EA"/>
<path d="M12.0905 48.3281H18.6086L18.6086 16.6694H12.0905L12.0905 48.3281Z" fill="url(#paint4_linear_329_2198)" fill-opacity="0.5"/>
<path d="M-1.19209e-05 48.3281H6.5181L6.5181 31.642H-1.19209e-05L-1.19209e-05 48.3281Z" fill="#8758EA"/>
<path d="M-1.19209e-05 48.3281H6.5181L6.5181 31.642H-1.19209e-05L-1.19209e-05 48.3281Z" fill="url(#paint5_linear_329_2198)" fill-opacity="0.5"/>
<defs>
<linearGradient id="paint0_linear_329_2198" x1="65.8102" y1="68.3235" x2="58.4754" y2="68.0389" gradientUnits="userSpaceOnUse">
<stop stop-color="#9531E0"/>
<stop offset="1" stop-color="#38ECE9"/>
</linearGradient>
<linearGradient id="paint1_linear_329_2198" x1="53.7052" y1="66.0225" x2="46.3734" y2="65.701" gradientUnits="userSpaceOnUse">
<stop stop-color="#9531E0"/>
<stop offset="1" stop-color="#38ECE9"/>
</linearGradient>
<linearGradient id="paint2_linear_329_2198" x1="41.6" y1="63.4634" x2="34.2734" y2="63.0877" gradientUnits="userSpaceOnUse">
<stop stop-color="#9531E0"/>
<stop offset="1" stop-color="#38ECE9"/>
</linearGradient>
<linearGradient id="paint3_linear_329_2198" x1="29.5094" y1="66.8381" x2="22.1765" y2="66.5309" gradientUnits="userSpaceOnUse">
<stop stop-color="#9531E0"/>
<stop offset="1" stop-color="#38ECE9"/>
</linearGradient>
<linearGradient id="paint4_linear_329_2198" x1="17.4188" y1="61.5193" x2="10.0983" y2="61.0887" gradientUnits="userSpaceOnUse">
<stop stop-color="#9531E0"/>
<stop offset="1" stop-color="#38ECE9"/>
</linearGradient>
<linearGradient id="paint5_linear_329_2198" x1="5.32828" y1="55.2807" x2="-1.92714" y2="54.4709" gradientUnits="userSpaceOnUse">
<stop stop-color="#9531E0"/>
<stop offset="1" stop-color="#38ECE9"/>
</linearGradient>
</defs>
</svg>
