<svg width="365" height="400" viewBox="0 0 365 400" fill="none" xmlns="http://www.w3.org/2000/svg">
<path d="M142.835 370.832C132.014 367.559 113.797 362.048 100.538 345.279C76.4335 314.793 84.3653 266.885 101.122 236.382C115.514 210.18 142.216 193.119 195.618 158.997C245.913 126.86 263.101 123.137 267.354 103.574C273.418 75.6854 244.621 55.0343 256.564 23.5622C257.997 19.7857 262.92 6.81443 274.726 1.90813C294.935 -6.49086 321.132 14.6373 333.407 30.2401C345.247 45.2904 358.026 72.8582 348.537 95.1958C341.661 111.38 328.936 111.07 326.28 125.946C323.608 140.914 335.683 145.742 341.334 170.348C343.591 180.178 348.123 199.91 339.485 216.922C328.315 238.918 305.239 236.455 301.086 254.733C298.085 267.94 309.152 273.544 308.947 288.826C308.679 308.946 289.171 323.748 272.773 335.848C253.464 350.098 201.371 388.54 142.835 370.832Z" fill="url(#paint0_linear_318_465)"/>
<path opacity="0.16" d="M282.492 10.4302C271.752 18.442 304.605 51.5117 297.086 96.7973C288.996 145.523 239.103 178.665 216.046 193.981C176.707 220.113 159.452 215.4 134.52 244.22C124.652 255.626 104.094 279.389 107.503 311.334C107.82 314.301 111.844 347.337 137.848 362.193C167.343 379.044 202.691 359.693 233.148 343.02C251.552 332.945 288.317 312.819 284.946 292.115C282.886 279.459 266.302 269.501 252.843 266.901C233.634 263.189 218.16 273.958 216.331 270.693C214.684 267.752 225.654 256.185 240.924 247.385C271.467 229.784 287.991 241.246 310.573 225.058C313.31 223.096 334.772 207.233 334.459 184.109C334.279 170.772 326.85 154.673 316.015 152.301C303.761 149.618 292.438 165.653 289.531 163.13C286.751 160.717 295.415 144.591 306.301 129.906C322.296 108.33 329.761 107.844 335.507 94.3241C344.275 73.6972 336.303 52.7026 335.114 49.7009C323.971 21.5749 291.674 3.58028 282.492 10.4302Z" fill="white"/>
<path opacity="0.16" d="M341.688 235.981C335.469 237.897 345.137 258.397 334.335 277.905C322.713 298.894 294.484 305.93 281.438 309.181C259.181 314.728 252.046 309.755 235.948 318.883C229.576 322.496 216.302 330.022 212.672 345.205C212.335 346.615 208.809 362.397 218.301 373.441C229.067 385.968 248.395 382.874 265.05 380.209C275.113 378.598 295.216 375.381 297.038 365.351C298.151 359.221 292.176 351.956 286.436 348.57C278.244 343.737 269.41 346.143 269.103 344.35C268.827 342.735 275.729 339.228 284.15 337.69C300.995 334.614 306.698 342.558 319.667 338.829C321.239 338.378 333.644 334.616 337.258 323.977C339.343 317.842 338.558 309.259 333.982 306.405C328.807 303.178 321.018 308.672 320.097 307.043C319.216 305.485 325.803 299.515 333.174 294.567C344.004 287.298 347.5 288.293 352.328 283.04C359.694 275.026 359.456 264.114 359.399 262.545C358.868 247.85 347.005 234.343 341.688 235.981Z" fill="white"/>
<path opacity="0.75" d="M282.758 137.642C282.758 71.3346 226.415 17.582 156.912 17.582C87.4095 17.582 31.0664 71.3346 31.0664 137.642C31.0664 177.882 51.819 213.497 83.67 235.28C97.1826 244.522 105.378 259.754 105.378 276.146V285.334C105.378 305.296 121.529 321.479 141.453 321.479H172.371C192.296 321.479 208.447 305.296 208.447 285.334V276.146C208.447 259.754 216.642 244.522 230.155 235.28C262.006 213.497 282.758 177.882 282.758 137.642Z" fill="#F4F7FA"/>
<path d="M184.829 375.009C184.829 383.187 172.33 389.817 156.913 389.817C141.495 389.817 128.996 383.187 128.996 375.009C128.996 366.831 141.495 360.201 156.913 360.201C172.33 360.201 184.829 366.831 184.829 375.009Z" fill="url(#paint1_linear_318_465)"/>
<path d="M119.822 348.557V363.679C119.822 368.795 122.728 373.483 127.337 375.685C133.736 378.742 144.375 382.098 159.836 381.701C172.38 381.379 180.559 379.326 185.759 377.17C190.783 375.088 194.003 370.11 194.003 364.663V356.296L119.822 348.557Z" fill="url(#paint2_linear_318_465)"/>
<path opacity="0.3" d="M119.822 361.803C120.953 362.904 122.262 363.838 123.733 364.541C130.911 367.97 177.933 375.635 189.275 371.365C190.748 370.81 192.073 370.068 193.234 369.174C193.73 367.746 194.003 366.225 194.003 364.663V356.296L119.822 348.557L119.822 361.803Z" fill="url(#paint3_linear_318_465)"/>
<path d="M123.116 338.267C118.937 337.831 115.302 341.115 115.302 345.323V345.752C115.302 351.492 118.562 356.751 123.733 359.221C130.911 362.652 177.933 370.315 189.275 366.046C194.985 363.896 198.523 358.984 198.523 352.873V352.528C198.523 348.895 195.783 345.849 192.176 345.472L123.116 338.267Z" fill="url(#paint4_linear_318_465)"/>
<path opacity="0.3" d="M192.176 345.472L123.115 338.267C120.391 337.983 117.904 339.286 116.499 341.39C117.886 344.666 120.412 347.405 123.733 348.992C130.911 352.422 179.935 361.085 189.275 356.676C192.91 354.959 195.762 352.061 197.289 348.539C196.151 346.867 194.32 345.696 192.176 345.472Z" fill="url(#paint5_linear_318_465)"/>
<path d="M120.413 313.768C117.59 313.768 115.302 316.06 115.302 318.889V330.733C115.302 336.473 118.562 341.732 123.733 344.203C130.911 347.633 179.935 356.296 189.275 351.887C194.793 349.281 198.523 343.966 198.523 337.855V318.889C198.523 316.06 196.234 313.768 193.411 313.768H120.413Z" fill="url(#paint6_linear_318_465)"/>
<path d="M197.494 317.455C197.494 322.764 179.325 327.068 156.913 327.068C134.5 327.068 116.331 322.764 116.331 317.455C116.331 312.146 134.5 307.842 156.913 307.842C179.325 307.842 197.494 312.146 197.494 317.455Z" fill="url(#paint7_linear_318_465)"/>
<path d="M282.758 137.642C282.758 71.3346 226.415 17.582 156.912 17.582C87.4095 17.582 31.0664 71.3346 31.0664 137.642C31.0664 177.882 51.819 213.497 83.67 235.28C97.1826 244.522 105.378 259.754 105.378 276.146V285.334C105.378 305.296 121.529 321.479 141.453 321.479H172.371C192.296 321.479 208.447 305.296 208.447 285.334V276.146C208.447 259.754 216.642 244.522 230.155 235.28C262.006 213.497 282.758 177.882 282.758 137.642Z" fill="url(#paint8_linear_318_465)"/>
<path opacity="0.5" d="M156.913 316.908C173.312 316.908 186.607 313.758 186.607 309.874C186.607 305.989 173.312 302.84 156.913 302.84C140.513 302.84 127.218 305.989 127.218 309.874C127.218 313.758 140.513 316.908 156.913 316.908Z" fill="#F4F7FA"/>
<path d="M149.174 314.172C148.324 314.172 147.586 313.539 147.474 312.672L125.629 204.489C125.508 203.547 126.172 202.685 127.112 202.564C128.054 202.438 128.912 203.108 129.033 204.05L150.878 312.234C150.999 313.176 150.335 314.037 149.395 314.158C149.321 314.168 149.247 314.172 149.174 314.172Z" fill="url(#paint9_linear_318_465)"/>
<path d="M162.743 314.172C162.67 314.172 162.596 314.168 162.522 314.158C161.582 314.037 160.918 313.176 161.039 312.234L182.884 204.05C183.005 203.109 183.864 202.437 184.805 202.564C185.745 202.685 186.409 203.547 186.289 204.489L164.443 312.672C164.332 313.539 163.593 314.172 162.743 314.172Z" fill="url(#paint10_linear_318_465)"/>
<path opacity="0.44" d="M158.925 246.961C218.734 246.961 267.218 200.112 267.218 142.322C267.218 84.5318 218.734 37.6836 158.925 37.6836C99.1168 37.6836 50.6323 84.5318 50.6323 142.322C50.6323 200.112 99.1168 246.961 158.925 246.961Z" fill="#F4F7FA"/>
<path d="M168.175 132.458C173.507 132.908 178.59 130.148 179.076 124.364C179.562 118.58 175.634 113.527 170.303 113.077C170.027 113.054 169.753 113.051 169.481 113.053C169.227 110.065 168.762 107.139 168.093 104.295C168.346 104.192 168.598 104.084 168.847 103.956C173.707 101.453 175.828 95.1821 173.583 89.9479C171.339 84.7139 165.579 82.4994 160.719 85.0018C160.465 85.1329 160.223 85.2798 159.984 85.4305C158.397 83.0298 156.64 80.7688 154.727 78.6668C154.904 78.4364 155.078 78.2021 155.239 77.9522C158.326 73.1684 157.283 66.6299 152.909 63.3482C148.535 60.0669 142.487 61.2849 139.4 66.0688C139.242 66.314 139.102 66.5661 138.965 66.82C136.496 65.6261 133.919 64.6374 131.249 63.8638C131.297 63.5724 131.34 63.2792 131.365 62.9797C131.852 57.1959 132.904 50.6659 127.566 50.2998C115.218 49.4526 112.545 55.5667 112.059 61.3505C112.034 61.6502 112.028 61.9465 112.026 62.2417C109.265 62.5571 106.559 63.0997 103.925 63.863C103.833 63.5899 103.737 63.3178 103.622 63.0497C101.377 57.8159 101.782 54.3243 96.6806 56.2856C85.5557 60.562 83.7772 66.8775 86.0217 72.1113C86.1391 72.3848 86.2713 72.645 86.4072 72.9017C84.1706 74.6534 82.0607 76.588 80.0954 78.6889C79.8853 78.5002 79.6712 78.315 79.4424 78.1433C75.0687 74.8619 69.0207 76.0798 65.9339 80.8638C62.8471 85.648 63.8906 92.1861 68.2646 95.4677C68.4886 95.6359 68.7194 95.7843 68.9518 95.9292C67.8171 98.6209 66.8706 101.428 66.1208 104.33C65.8528 104.283 65.5826 104.24 65.3066 104.217C59.9752 103.767 55.2593 108.091 54.773 113.875C54.2867 119.658 58.2144 124.712 63.5458 125.162C63.8219 125.185 64.0956 125.188 64.3677 125.186C64.6221 128.174 65.0869 131.099 65.756 133.944C65.5032 134.047 65.2504 134.155 65.0016 134.283C60.1415 136.786 58.0212 143.057 60.2656 148.291C62.5102 153.525 68.2698 155.739 73.1299 153.237C73.3839 153.106 73.6258 152.959 73.8646 152.808C75.4514 155.209 77.2085 157.47 79.1211 159.572C78.9445 159.802 78.7705 160.037 78.6092 160.287C75.5226 165.071 76.566 171.609 80.9398 174.891C85.3139 178.172 94.7822 176.671 97.8688 171.887C98.0268 171.642 94.7468 171.673 94.8832 171.419C97.3522 172.613 99.93 173.602 102.599 174.375C102.552 174.666 102.508 174.96 102.483 175.259C101.997 181.043 105.925 186.096 111.256 186.546C116.587 186.996 121.303 182.672 121.789 176.888C121.815 176.589 121.821 176.292 121.823 175.997C124.583 175.682 127.29 175.139 129.924 174.376C130.016 174.649 130.112 174.921 130.227 175.189C132.471 180.423 138.231 182.638 143.091 180.135C147.951 177.633 150.071 171.362 147.827 166.128C147.71 165.854 147.577 165.594 147.442 165.337C149.678 163.586 151.788 161.651 153.753 159.55C153.963 159.739 154.177 159.924 154.406 160.096C158.78 163.377 164.828 162.159 167.915 157.375C171.001 152.591 169.958 146.053 165.584 142.771C165.36 142.603 165.129 142.455 164.897 142.31C166.031 139.618 166.611 135.247 167.361 132.345C167.629 132.392 167.899 132.435 168.175 132.458ZM113.728 157.143C94.3715 155.509 80.111 137.162 81.8763 116.162C83.6417 95.1619 100.764 79.4628 120.121 81.0962C139.478 82.7294 153.738 101.077 151.973 122.077C150.207 143.077 133.085 158.776 113.728 157.143Z" fill="url(#paint11_linear_318_465)"/>
<path d="M168.847 103.955C173.708 101.453 175.828 95.1817 173.583 89.9478C171.339 84.7139 165.579 82.4994 160.719 85.0019C160.465 85.1326 160.223 85.2797 159.984 85.4303C158.397 83.0296 156.64 80.7686 154.728 78.6668C154.905 78.4366 155.078 78.202 155.24 77.9519C158.326 73.1683 160.698 63.6789 156.011 60.8644C147.116 55.5224 142.487 61.2849 139.401 66.0688C139.242 66.314 139.102 66.566 138.966 66.8197C136.497 65.6259 133.919 64.6374 131.25 63.8638C131.297 63.5724 131.34 63.2792 131.366 62.9797C131.63 59.8317 130.581 56.9072 128.716 54.8164C127.527 63.8606 126.408 72.9124 125.378 81.9748C141.99 86.1646 153.574 103.029 151.973 122.077C150.616 138.219 140.182 151.218 126.639 155.632C126.67 157.397 126.715 159.165 126.699 160.932C126.655 165.726 126.344 170.53 126.029 175.331C127.343 175.065 128.643 174.747 129.924 174.376C130.017 174.649 130.113 174.921 130.228 175.189C132.472 180.423 137.487 183.605 146.429 179.401C151.376 177.075 150.072 171.361 147.828 166.127C147.71 165.854 147.578 165.594 147.442 165.337C149.679 163.585 151.789 161.651 153.754 159.55C153.964 159.738 154.179 159.924 154.407 160.095C158.781 163.377 168.593 161.534 171.68 156.75C174.767 151.966 169.958 146.052 165.585 142.771C165.361 142.603 165.13 142.454 164.897 142.309C166.032 139.618 166.864 135.342 167.614 132.439C167.882 132.487 168.152 132.53 168.428 132.553C173.759 133.003 178.59 130.148 179.076 124.364C179.562 118.58 175.635 113.527 170.303 113.077C170.027 113.053 169.754 113.051 169.482 113.052C169.227 110.065 168.762 107.139 168.093 104.295C168.346 104.191 168.598 104.084 168.847 103.955Z" fill="url(#paint12_linear_318_465)"/>
<path d="M173.516 132.63C178.847 133.079 183.563 128.755 184.049 122.971C184.535 117.188 180.608 112.134 175.277 111.684C175 111.661 174.727 111.658 174.455 111.66C174.2 108.673 173.735 105.747 173.066 102.903C173.319 102.799 173.572 102.691 173.821 102.563C178.681 100.061 180.801 93.7893 178.557 88.5553C176.312 83.3214 170.553 81.1069 165.693 83.6093C165.438 83.7404 165.196 83.8873 164.957 84.0379C163.371 81.6371 161.614 79.3763 159.701 77.2743C159.878 77.044 160.052 76.8096 160.213 76.5594C163.3 71.7758 162.256 65.2371 157.882 61.9557C153.508 58.6742 147.46 59.8921 144.374 64.676C144.216 64.9214 144.076 65.1735 143.939 65.4271C141.47 64.2333 138.892 63.2448 136.223 62.4712C136.27 62.1798 136.314 61.8866 136.339 61.5869C136.825 55.8031 132.897 50.7496 127.566 50.2997C122.235 49.85 117.519 54.1739 117.033 59.9577C117.007 60.2572 117.001 60.5537 116.999 60.8488C114.239 61.164 111.532 61.7068 108.899 62.4702C108.806 62.1973 108.71 61.925 108.595 61.6569C106.351 56.4232 100.591 54.2087 95.731 56.7108C90.8708 59.2132 88.7506 65.4846 90.995 70.7185C91.1125 70.9917 91.2447 71.2522 91.3807 71.509C89.1441 73.2608 87.0341 75.1952 85.0689 77.2963C84.8588 77.1075 84.6447 76.9223 84.4162 76.7505C80.0421 73.4689 73.9942 74.687 70.9074 79.4712C67.8206 84.2553 68.8643 90.7935 73.2381 94.0749C73.4621 94.2432 73.693 94.3916 73.9252 94.5363C72.7906 97.2282 71.844 100.035 71.0943 102.938C70.8261 102.89 70.5562 102.847 70.2799 102.824C64.9487 102.374 60.2327 106.698 59.7465 112.482C59.2601 118.266 63.1878 123.319 68.5191 123.769C68.7955 123.792 69.069 123.795 69.3412 123.793C69.5956 126.781 70.0604 129.707 70.7296 132.551C70.4765 132.655 70.2239 132.762 69.975 132.89C65.1147 135.393 62.9946 141.664 65.2391 146.898C67.4836 152.132 73.2431 154.346 78.1033 151.844C78.3572 151.713 78.5993 151.566 78.8381 151.416C80.4249 153.816 82.1819 156.077 84.0947 158.179C83.9178 158.409 83.7439 158.644 83.5826 158.894C80.4958 163.677 81.5395 170.216 85.9133 173.498C90.287 176.779 96.335 175.561 99.422 170.777C99.58 170.532 99.7202 170.28 99.8566 170.026C102.326 171.22 104.904 172.208 107.573 172.982C107.525 173.273 107.482 173.567 107.457 173.866C106.971 179.65 110.898 184.704 116.229 185.153C121.561 185.603 126.277 181.279 126.763 175.496C126.788 175.196 126.794 174.9 126.796 174.604C129.557 174.289 132.263 173.747 134.897 172.983C134.989 173.256 135.085 173.528 135.2 173.796C137.445 179.03 143.204 181.245 148.065 178.742C152.925 176.24 155.045 169.969 152.8 164.735C152.683 164.462 152.551 164.201 152.415 163.944C154.652 162.192 156.761 160.258 158.727 158.157C158.937 158.346 159.151 158.531 159.379 158.702C163.754 161.984 169.801 160.766 172.888 155.982C175.975 151.198 174.931 144.66 170.557 141.378C170.333 141.21 170.102 141.062 169.87 140.917C171.005 138.225 171.951 135.418 172.701 132.515C172.97 132.563 173.24 132.606 173.516 132.63ZM118.702 155.75C99.3449 154.117 85.0844 135.769 86.8498 114.769C88.6149 93.7695 105.738 78.0701 125.094 79.7037C144.451 81.337 158.711 99.6846 156.946 120.684C155.181 141.684 138.058 157.384 118.702 155.75Z" fill="white"/>
<path d="M242.445 173.326C245.692 173.6 248.772 171.927 249.068 168.404C249.364 164.881 246.972 161.803 243.725 161.529C243.556 161.515 243.39 161.513 243.224 161.514C243.069 159.695 242.786 157.913 242.378 156.18C242.533 156.117 242.686 156.052 242.838 155.973C245.798 154.449 247.09 150.63 245.722 147.442C244.355 144.254 240.847 142.905 237.887 144.429C237.732 144.509 237.585 144.598 237.439 144.69C236.473 143.228 235.403 141.851 234.238 140.57C234.345 140.43 234.451 140.287 234.549 140.135C236.43 137.221 235.794 133.239 233.13 131.24C230.466 129.241 226.782 129.983 224.902 132.897C224.806 133.046 224.72 133.2 224.637 133.355C223.133 132.627 221.563 132.025 219.937 131.554C219.966 131.377 219.993 131.198 220.008 131.016C220.304 127.493 220.945 123.515 217.694 123.292C210.173 122.776 208.545 126.5 208.249 130.023C208.234 130.206 208.23 130.386 208.229 130.566C206.547 130.758 204.899 131.089 203.294 131.554C203.238 131.387 203.18 131.221 203.11 131.058C201.743 127.87 201.989 125.744 198.882 126.938C192.106 129.543 191.023 133.39 192.39 136.577C192.461 136.744 192.542 136.902 192.625 137.059C191.262 138.126 189.977 139.304 188.78 140.584C188.652 140.469 188.522 140.356 188.383 140.252C185.719 138.253 182.035 138.995 180.155 141.909C178.275 144.823 178.91 148.805 181.574 150.804C181.711 150.906 181.851 150.997 181.993 151.085C181.302 152.724 180.725 154.434 180.269 156.202C180.105 156.173 179.941 156.147 179.773 156.133C176.526 155.859 173.653 158.493 173.357 162.015C173.061 165.538 175.453 168.616 178.7 168.89C178.868 168.904 179.035 168.906 179.201 168.905C179.356 170.725 179.639 172.507 180.046 174.239C179.892 174.302 179.738 174.368 179.587 174.446C176.627 175.97 175.335 179.79 176.702 182.978C178.069 186.166 181.578 187.514 184.538 185.99C184.693 185.911 184.84 185.821 184.985 185.73C185.952 187.192 187.022 188.569 188.187 189.849C188.08 189.989 187.974 190.132 187.875 190.284C185.995 193.198 186.631 197.181 189.295 199.179C191.959 201.178 197.726 200.264 199.606 197.35C199.702 197.201 197.705 197.22 197.788 197.065C199.292 197.792 200.862 198.394 202.487 198.865C202.459 199.043 202.432 199.222 202.417 199.404C202.121 202.927 204.513 206.005 207.76 206.279C211.008 206.553 213.88 203.919 214.176 200.396C214.191 200.214 214.195 200.033 214.196 199.853C215.878 199.662 217.526 199.331 219.13 198.866C219.187 199.032 219.245 199.198 219.315 199.361C220.682 202.549 224.19 203.898 227.151 202.374C230.111 200.85 231.402 197.03 230.035 193.842C229.964 193.676 229.883 193.517 229.8 193.361C231.163 192.294 232.448 191.115 233.645 189.836C233.773 189.95 233.903 190.064 234.042 190.168C236.707 192.167 240.39 191.425 242.27 188.511C244.15 185.597 243.515 181.615 240.851 179.616C240.714 179.514 240.574 179.423 240.432 179.335C241.123 177.695 241.492 175.025 241.949 173.257C242.112 173.285 242.277 173.312 242.445 173.326ZM209.266 188.369C197.476 187.374 188.79 176.199 189.865 163.408C190.94 150.617 201.369 141.055 213.159 142.05C224.949 143.045 233.635 154.22 232.56 167.011C231.485 179.802 221.055 189.364 209.266 188.369Z" fill="url(#paint13_linear_318_465)"/>
<path d="M242.838 155.973C245.798 154.449 247.09 150.629 245.723 147.441C244.356 144.253 240.847 142.904 237.887 144.428C237.732 144.508 237.585 144.598 237.44 144.689C236.473 143.227 235.403 141.85 234.238 140.57C234.345 140.43 234.451 140.287 234.55 140.134C236.43 137.221 237.874 131.441 235.019 129.727C229.601 126.473 226.782 129.983 224.902 132.897C224.806 133.046 224.72 133.199 224.637 133.354C223.133 132.627 221.563 132.025 219.937 131.554C219.966 131.376 219.993 131.198 220.008 131.015C220.169 129.098 219.53 127.316 218.394 126.043C217.67 131.552 216.988 137.065 216.361 142.585C226.479 145.137 233.535 155.409 232.56 167.011C231.733 176.842 225.378 184.76 217.129 187.449C217.148 188.523 217.175 189.6 217.166 190.677C217.139 193.597 216.95 196.523 216.758 199.447C217.558 199.285 218.35 199.092 219.13 198.866C219.186 199.032 219.245 199.198 219.315 199.361C220.682 202.549 223.737 204.487 229.183 201.926C232.196 200.51 231.402 197.03 230.035 193.842C229.963 193.675 229.883 193.517 229.8 193.36C231.162 192.293 232.447 191.115 233.644 189.835C233.772 189.95 233.903 190.063 234.042 190.167C236.706 192.166 242.683 191.044 244.563 188.13C246.443 185.216 243.514 181.614 240.85 179.615C240.714 179.513 240.573 179.423 240.432 179.334C241.123 177.695 241.618 174.867 242.075 173.099C242.238 173.128 242.403 173.154 242.571 173.168C245.818 173.443 248.772 171.927 249.068 168.404C249.364 164.881 246.972 161.803 243.724 161.529C243.556 161.515 243.39 161.513 243.224 161.514C243.069 159.695 242.786 157.913 242.378 156.181C242.533 156.117 242.686 156.051 242.838 155.973Z" fill="url(#paint14_linear_318_465)"/>
<path d="M245.681 173.439C248.929 173.713 251.801 171.079 252.097 167.556C252.393 164.033 250.001 160.955 246.754 160.681C246.586 160.667 246.419 160.665 246.253 160.667C246.098 158.847 245.815 157.065 245.408 155.333C245.562 155.269 245.715 155.204 245.867 155.126C248.827 153.602 250.119 149.782 248.752 146.594C247.385 143.406 243.876 142.057 240.916 143.581C240.762 143.661 240.614 143.751 240.469 143.842C239.502 142.38 238.432 141.003 237.267 139.723C237.374 139.582 237.481 139.44 237.579 139.287C239.459 136.374 238.823 132.391 236.159 130.393C233.495 128.394 229.811 129.136 227.931 132.049C227.835 132.199 227.75 132.352 227.666 132.507C226.162 131.78 224.592 131.178 222.967 130.706C222.995 130.529 223.022 130.35 223.037 130.168C223.333 126.645 220.941 123.567 217.694 123.293C214.447 123.019 211.574 125.653 211.278 129.176C211.263 129.358 211.259 129.538 211.258 129.718C209.577 129.91 207.928 130.241 206.324 130.706C206.268 130.54 206.209 130.374 206.139 130.211C204.772 127.023 201.264 125.674 198.304 127.198C195.343 128.722 194.052 132.542 195.419 135.73C195.491 135.896 195.571 136.055 195.654 136.211C194.292 137.278 193.007 138.457 191.81 139.736C191.682 139.622 191.551 139.509 191.412 139.404C188.748 137.405 185.064 138.147 183.184 141.061C181.304 143.975 181.939 147.957 184.603 149.956C184.74 150.059 184.88 150.149 185.022 150.237C184.331 151.877 183.754 153.586 183.298 155.354C183.135 155.325 182.97 155.299 182.802 155.285C179.555 155.011 176.682 157.645 176.386 161.168C176.09 164.69 178.482 167.769 181.729 168.042C181.897 168.057 182.064 168.058 182.23 168.057C182.385 169.877 182.668 171.659 183.076 173.391C182.921 173.455 182.768 173.52 182.616 173.598C179.656 175.122 178.364 178.942 179.731 182.13C181.099 185.318 184.607 186.667 187.567 185.142C187.722 185.063 187.869 184.973 188.014 184.882C188.981 186.344 190.051 187.721 191.216 189.001C191.109 189.141 191.003 189.284 190.904 189.437C189.024 192.35 189.66 196.333 192.324 198.332C194.988 200.33 198.672 199.589 200.552 196.675C200.648 196.525 200.734 196.372 200.817 196.217C202.321 196.944 203.891 197.546 205.516 198.018C205.488 198.195 205.461 198.374 205.446 198.556C205.15 202.079 207.542 205.157 210.789 205.431C214.037 205.705 216.909 203.071 217.205 199.548C217.22 199.366 217.224 199.186 217.225 199.006C218.907 198.814 220.555 198.483 222.159 198.018C222.216 198.184 222.274 198.35 222.344 198.513C223.711 201.701 227.22 203.05 230.18 201.526C233.14 200.002 234.431 196.182 233.064 192.994C232.993 192.828 232.912 192.669 232.829 192.513C234.192 191.446 235.477 190.267 236.674 188.988C236.802 189.103 236.932 189.216 237.071 189.32C239.736 191.319 243.419 190.577 245.299 187.663C247.18 184.749 246.544 180.767 243.88 178.768C243.743 178.666 243.603 178.575 243.461 178.487C244.152 176.848 244.729 175.138 245.185 173.37C245.349 173.398 245.513 173.425 245.681 173.439ZM212.295 187.521C200.505 186.527 191.819 175.351 192.894 162.56C193.97 149.77 204.399 140.207 216.189 141.202C227.979 142.197 236.664 153.372 235.589 166.163C234.514 178.954 224.085 188.516 212.295 187.521Z" fill="white"/>
<path d="M265.053 388.086C265.053 388.086 265.381 390.703 265.161 391.579C264.94 392.456 257.347 393.09 254.769 392.785C252.192 392.48 256.305 389.842 257.947 389.347C259.589 388.852 265.053 388.086 265.053 388.086Z" fill="url(#paint15_linear_318_465)"/>
<path d="M261.23 383.719L262.031 388.969C262.031 388.969 264.072 389.888 265.053 388.98L265.161 383.484L261.23 383.719Z" fill="url(#paint16_linear_318_465)"/>
<path d="M304.037 383.486C304.037 383.486 302.426 384.684 302.856 386.119C303.285 387.553 307.045 393.302 309.724 394.933C312.403 396.565 311.564 393.166 310.784 391.049C310.004 388.931 308.012 384.268 307.234 383.486C306.456 382.704 304.037 383.486 304.037 383.486Z" fill="url(#paint17_linear_318_465)"/>
<path d="M301.139 377.717C301.918 379.892 302.667 381.68 303.253 382.999C304.55 385.918 305.258 387.013 306.061 387.962C306.761 388.789 308.417 390.553 308.862 390.259C309.315 389.962 308.103 387.817 305.767 381.534C305.427 380.622 304.356 377.717 304.356 377.717H301.139Z" fill="url(#paint18_linear_318_465)"/>
<path d="M245.328 286.827C244.772 292.294 244.239 300.78 245.036 311.08C246.075 324.498 248.753 332.989 252.112 347.296C254.164 356.04 256.93 368.909 259.432 385.003C260.013 385.336 261.721 386.212 263.921 385.885C265.152 385.701 266.074 385.211 266.617 384.858C273.184 364.755 271.244 352.297 268.076 344.535C266.725 341.227 265.087 338.617 264.212 333.531C263.054 326.802 264.486 323.041 266.528 307.455C267.984 296.346 267.732 294.629 266.763 292.963C262.891 286.302 251.049 286.432 245.328 286.827Z" fill="url(#paint19_linear_318_465)"/>
<path d="M204.492 230.57C204.492 230.57 203.571 226.949 202.037 225.993C200.503 225.037 198.335 224.015 197.839 223.595C197.342 223.175 196.762 224.43 198.193 225.391C199.624 226.351 199.624 226.351 199.624 226.351C199.654 226.616 199.614 226.822 199.566 226.968C199.339 227.648 198.566 228.114 197.61 228.202C193.937 228.972 192.502 229.01 191.942 228.846C191.859 228.821 191.54 228.718 191.405 228.86C191.189 229.088 191.577 229.811 191.743 230.064C192.737 231.584 196.186 232.246 198.768 231.056C199.711 230.623 200.072 230.156 200.76 230.273C201.853 230.459 202.525 231.904 202.922 233.099L204.492 230.57Z" fill="url(#paint20_linear_318_465)"/>
<path d="M267.929 289.164C271.952 309.978 275.9 320.909 278.888 327.092C279.624 328.617 282.083 333.537 284.407 340.59C286.464 346.833 287.321 351.425 287.76 353.447C289.147 359.827 292.575 369.142 301.797 381.36C301.912 381.428 303.485 382.319 304.988 381.525C305.749 381.123 306.128 380.482 306.279 380.183C305.073 368.501 303.689 358.685 302.488 351.109C302.236 349.52 301.126 342.568 299.385 333.384C298.703 329.789 297.705 324.523 296.509 319.114C295.021 312.377 292.737 303.213 289.218 292.232C282.122 291.209 275.026 290.187 267.929 289.164Z" fill="url(#paint21_linear_318_465)"/>
<path d="M201.53 231.72C202.576 230.789 203.622 229.857 204.668 228.926C205.05 229.313 210.633 234.771 218.436 233.117C223.809 231.978 226.909 227.557 228.894 224.735C234.856 216.259 231.29 210.04 237.71 204.28C239.493 202.681 242.99 200.745 245.277 201.335C250.725 202.742 253.861 219.157 248.588 232.069C247.524 234.675 241.664 249.025 228.371 250.579C217.637 251.835 206.256 244.258 201.53 231.72Z" fill="white"/>
<path d="M264.503 206.838C262.222 204.725 257.857 202.289 255.668 196.627C255.009 194.923 252.675 188.885 256.118 184.265C258.162 181.523 261.959 179.662 265.305 180.321C268.164 180.884 268.611 182.879 273.47 186.895C275.362 188.458 278.402 190.971 281.785 192.368C287.582 194.761 291.065 192.509 296.884 192.766C304.034 193.082 312.339 197.079 316.34 202.893C323.443 213.211 313.154 223.677 320.934 235.765C323.483 239.725 324.739 238.837 330.776 246.503C336.822 254.179 339.844 258.017 339.307 262.72C338.56 269.247 331.543 275.483 324.935 275.906C318.48 276.321 314.377 271.233 311.091 273.458C308.752 275.042 310.089 278.123 307.605 281.825C304.403 286.599 298.109 287.55 297.092 287.703C287.657 289.129 274.936 278.044 269.533 264.912C259.791 241.23 276.905 218.324 264.503 206.838Z" fill="url(#paint22_linear_318_465)"/>
<path opacity="0.3" d="M268.075 344.534C266.725 341.226 265.087 338.616 264.212 333.53C263.053 326.801 264.485 323.04 266.528 307.454C267.984 296.345 267.731 294.628 266.763 292.962C264.659 289.342 260.2 287.736 255.65 287.08C255.71 287.314 255.772 287.548 255.821 287.774C258.209 298.699 249.097 305.364 253.207 317.373C255.233 323.294 258.466 324.65 259.22 331.518C259.926 337.951 257.366 339.292 257.913 345.139C258.73 353.88 264.927 355.995 266.54 362.689C267.588 367.038 266.705 373.398 259.052 382.604C259.179 383.397 259.306 384.193 259.432 385.002C260.013 385.335 261.721 386.211 263.921 385.884C265.152 385.701 266.073 385.21 266.617 384.858C273.184 364.754 271.244 352.296 268.075 344.534Z" fill="url(#paint23_linear_318_465)"/>
<path opacity="0.15" d="M244.057 217.051C234.232 224.826 235.326 239.739 229.286 240.495C227.441 240.726 227.542 239.309 223.142 237.875C216.706 235.779 213.683 237.896 209.155 236.304C207.28 235.644 204.841 234.235 202.439 230.91C202.136 231.18 201.833 231.45 201.53 231.72C206.256 244.257 217.638 251.834 228.371 250.579C241.664 249.025 247.524 234.675 248.588 232.069C251.062 226.01 251.685 219.181 251.086 213.492C248.818 214.155 246.355 215.233 244.057 217.051Z" fill="url(#paint24_linear_318_465)"/>
<path d="M236.93 205.265C237.532 204.328 239.446 201.732 247.569 199.818C251.64 198.859 259.167 197.216 268.853 199.273C282.156 202.097 290.441 210.095 293.56 213.456C291.006 215.122 283.959 220.206 280.47 229.849C279.384 232.849 276.176 243.107 280.764 252.714C283.407 258.25 288.083 262.406 291.634 265.563C296.961 270.298 299.72 271.025 301.505 275.267C303.45 279.886 301.491 282.138 303.906 285.301C306.499 288.697 309.538 287.118 313.935 290.553C318.438 294.07 316.835 296.965 320.934 300.853C326.889 306.501 334.783 304.666 335.151 307.208C335.467 309.394 329.856 312.36 325.089 313.563C315.649 315.946 307.415 311.947 304.967 310.714C298.188 307.302 299.359 305.093 294.19 302.492C285.536 298.136 279.621 302.983 259.91 303.482C249.235 303.753 243.838 303.814 240.881 300.195C238.18 296.89 239.6 293.265 241.22 277.64C241.22 277.64 241.22 277.639 241.22 277.638C241.741 272.42 242.832 261.495 242.838 255.269C242.842 251.59 241.569 245.578 239.021 233.554C238.871 232.845 237.492 226.349 236.379 217.672C235.376 209.858 235.521 207.458 236.93 205.265Z" fill="white"/>
<g opacity="0.15">
<path d="M320.934 300.852C316.835 296.965 318.438 294.07 313.935 290.552C309.538 287.118 306.499 288.697 303.906 285.301C301.491 282.138 303.45 279.886 301.506 275.267C299.72 271.025 296.961 270.298 291.634 265.563C288.083 262.406 283.407 258.25 280.764 252.714C276.176 243.106 279.384 232.849 280.47 229.849C283.959 220.205 291.006 215.122 293.56 213.456C293.314 213.191 293.024 212.889 292.714 212.57C275.89 214.887 266.081 224.627 264.868 227.511C262.063 234.178 266.503 236.627 266.617 255.854C266.672 265.045 265.683 268.674 268.659 272.51C272.063 276.897 275.985 275.539 280.907 281.276C284.689 285.682 284.084 288.477 287.615 290.333C291.412 292.33 293.831 290.003 298.114 290.918C305.269 292.447 306.799 300.713 311.529 305.235C315.106 308.655 321.719 311.046 334.762 308.48C335.064 308.04 335.209 307.61 335.151 307.208C334.783 304.666 326.889 306.5 320.934 300.852Z" fill="url(#paint25_linear_318_465)"/>
</g>
<path d="M269.971 232.697C268.182 236.502 276.401 245.365 285.535 249.573C287.396 250.431 300.76 256.588 306.717 250.668C311.639 245.775 308.462 235.659 307.328 232.048C301.759 214.314 284.658 205.293 277.491 202.039C272.143 215.439 275.293 221.41 276.533 223.274C277.828 225.221 281.442 229.313 285.281 232.917C287.982 235.451 289.663 236.685 289.437 237.08C289.156 237.573 285.991 236.643 273.696 230.647C272.271 230.878 270.582 231.398 269.971 232.697Z" fill="white"/>
<path d="M263.392 188.852C263.392 188.852 264.241 195.648 266.744 197.205C269.248 198.761 273.295 200.795 273.741 201.347C274.186 201.898 258.232 203.617 250.325 199.62C252.931 199.075 253.639 198.875 253.639 198.875C254.347 198.675 255.666 198.302 256.988 197.547C257.888 197.034 259.339 196.03 260.67 194.136L260.641 190.373L263.392 188.852Z" fill="url(#paint26_linear_318_465)"/>
<path d="M263.773 191.26C263.773 191.26 262.14 193.504 259.581 192.569C257.289 191.731 258.657 185.8 260.475 185.124C261.081 184.898 262.195 184.998 262.939 185.463C263.463 185.79 264.861 187.53 264.059 189.48C264.638 189.312 265.148 189.465 265.276 189.752C265.438 190.116 264.947 190.613 264.836 190.725C264.451 191.115 263.987 191.224 263.773 191.26Z" fill="url(#paint27_linear_318_465)"/>
<path d="M273.076 231.807C273.076 231.807 265.582 224.123 262.531 222.988C259.482 221.853 261.312 223.512 262.531 224.473C263.751 225.433 264.565 225.749 263.94 227.206C263.316 228.664 262.182 229.957 263.969 231.1C265.756 232.243 266.453 232.68 267.848 232.854C269.242 233.029 269.242 233.029 269.242 233.029L271.072 234.007C271.072 234.007 273.425 233.728 273.076 231.807Z" fill="url(#paint28_linear_318_465)"/>
<path d="M40.9321 393.798C40.3015 394.312 40.1856 395.594 40.11 396.432C40.0759 396.807 40.0591 396.994 40.1009 397.126C40.4055 398.091 42.2728 398.192 45.201 398.492C49.8284 398.966 51.2053 399.331 51.5675 398.641C51.9069 397.994 51.0857 396.936 50.9931 396.819C50.4959 396.191 49.8856 395.963 48.7058 395.574C46.5227 394.854 45.0476 394.46 44.6009 394.341C41.812 393.594 41.3462 393.461 40.9321 393.798Z" fill="url(#paint29_linear_318_465)"/>
<path d="M43.6839 389.562L44.147 394.846C44.0155 395.101 42.4482 395.866 41.2032 395.21L40.0133 390.017L43.6839 389.562Z" fill="url(#paint30_linear_318_465)"/>
<path d="M81.3847 391.46C80.629 392.296 80.4569 393.836 81.1139 394.594C81.7598 395.34 82.731 394.781 85.4855 394.863C88.4362 394.952 89.2066 395.65 91.2116 395.095C92.0215 394.871 93.4522 394.327 93.425 393.747C93.4059 393.34 92.6776 393.129 90.245 392.313C86.792 391.154 86.8072 391.091 86.0739 390.969C84.2321 390.663 82.3827 390.356 81.3847 391.46Z" fill="url(#paint31_linear_318_465)"/>
<path d="M83.2751 386.639L84.755 391.571C84.6432 391.836 83.1387 392.718 81.8476 392.159L79.6497 387.372L83.2751 386.639Z" fill="url(#paint32_linear_318_465)"/>
<path d="M70.1262 278.617C70.3381 295.193 71.4671 313.831 74.1759 334.079C76.8531 354.092 80.605 372.174 84.6976 388.075C82.8095 388.584 80.9214 389.093 79.0333 389.602C74.243 385.127 68.2001 378.082 65.2842 368.126C63.4746 361.947 64.0776 358.772 62.9296 351.172C61.1018 339.071 57.3996 332.731 53.5731 322.973C50.1344 314.204 46.0699 301.336 43.8907 284.134C52.6359 282.295 61.381 280.456 70.1262 278.617Z" fill="url(#paint33_linear_318_465)"/>
<path d="M49.328 278.693C48.1723 299.775 47.2219 321.249 46.5016 343.103C45.961 359.503 45.564 375.694 45.3003 391.673C43.3717 391.912 41.4429 392.15 39.514 392.389C37.6505 388.912 35.1751 383.597 33.4794 376.785C31.4198 368.511 31.8968 363.597 30.9936 355.022C29.9802 345.404 28.5083 343.309 25.9007 331.176C20.6083 306.554 17.962 294.242 23.8658 286.584C25.7823 284.098 31.7903 277.861 49.328 278.693Z" fill="url(#paint34_linear_318_465)"/>
<path d="M23.2294 209.052C25.055 208.24 27.5466 208.098 30.666 207.208C34.6615 206.068 38.9852 206.098 45.5628 205.902C55.006 205.62 61.0535 205.44 67.0041 207.679C80.3348 212.694 92.0069 229.41 88.9264 241.769C86.1144 253.05 72.4461 254.939 73.014 265.214C73.2741 269.921 75.9341 274.308 74.0916 280.883C73.727 282.184 72.9764 283.312 71.6926 285.221C65.34 294.664 44.5663 279.399 33.2827 287.629C27.2273 292.046 27.2178 300.233 22.5789 300.307C19.3666 300.358 16.9016 296.472 15.9773 295.015C7.1216 281.055 20.0329 222.958 23.2294 209.052Z" fill="url(#paint35_linear_318_465)"/>
<path d="M23.2294 209.052C25.055 208.24 27.5466 208.098 30.666 207.208C34.6615 206.068 38.9852 206.098 45.5628 205.902C55.006 205.62 61.0535 205.44 67.0041 207.679C80.3348 212.694 92.0069 229.41 88.9264 241.769C86.1144 253.05 72.4461 254.939 73.014 265.214C73.2741 269.921 75.9341 274.308 74.0916 280.883C73.727 282.184 72.9764 283.312 71.6926 285.221C65.34 294.664 44.5663 279.399 33.2827 287.629C27.2273 292.046 27.2178 300.233 22.5789 300.307C19.3666 300.358 16.9016 296.472 15.9773 295.015C7.1216 281.055 20.0329 222.958 23.2294 209.052Z" fill="url(#paint36_linear_318_465)"/>
<path d="M23.2294 209.052C25.055 208.24 27.5466 208.098 30.666 207.208C34.6615 206.068 38.9852 206.098 45.5628 205.902C55.006 205.62 61.0535 205.44 67.0041 207.679C80.3348 212.694 92.0069 229.41 88.9264 241.769C86.1144 253.05 72.4461 254.939 73.014 265.214C73.2741 269.921 75.9341 274.308 74.0916 280.883C73.727 282.184 72.9764 283.312 71.6926 285.221C65.34 294.664 44.5663 279.399 33.2827 287.629C27.2273 292.046 27.2178 300.233 22.5789 300.307C19.3666 300.358 16.9016 296.472 15.9773 295.015C7.1216 281.055 20.0329 222.958 23.2294 209.052Z" fill="url(#paint37_linear_318_465)" fill-opacity="0.8"/>
<g opacity="0.3">
<path d="M43.5395 276.66C39.4551 266.961 52.6221 256.3 47.2529 245.158C42.7498 235.814 30.8517 237.843 25.4672 228.043C22.1729 222.048 23.0722 214.82 25.1215 208.451C24.4302 208.616 23.7942 208.801 23.2294 209.052C20.0329 222.958 7.12145 281.055 15.9773 295.015C16.9016 296.472 19.3666 300.358 22.5789 300.307C27.2179 300.233 27.2273 292.046 33.2827 287.629C43.3428 280.291 60.9461 291.629 69.1476 287.482C51.375 286.064 45.4523 281.202 43.5395 276.66Z" fill="url(#paint38_linear_318_465)"/>
</g>
<path d="M23.2294 209.051C10.1235 214.183 -1.99661 230.853 0.730085 246.164C1.18414 248.715 3.03819 259.187 11.907 264.272C20.0378 268.933 31.0168 267.734 39.8133 261.132C41.0151 260.063 42.2176 258.995 43.4196 257.926C44.6023 256.645 45.7852 255.364 46.9677 254.083C45.1084 252.534 41.9496 250.299 37.5133 248.864C31.7494 247.001 27.6483 250.136 24.6925 247.787C22.3844 245.953 22.2638 242.417 22.352 239.351C22.6781 228.007 26.4797 207.779 23.2294 209.051Z" fill="url(#paint39_linear_318_465)"/>
<path d="M23.2294 209.051C10.1235 214.183 -1.99661 230.853 0.730085 246.164C1.18414 248.715 3.03819 259.187 11.907 264.272C20.0378 268.933 31.0168 267.734 39.8133 261.132C41.0151 260.063 42.2176 258.995 43.4196 257.926C44.6023 256.645 45.7852 255.364 46.9677 254.083C45.1084 252.534 41.9496 250.299 37.5133 248.864C31.7494 247.001 27.6483 250.136 24.6925 247.787C22.3844 245.953 22.2638 242.417 22.352 239.351C22.6781 228.007 26.4797 207.779 23.2294 209.051Z" fill="url(#paint40_linear_318_465)" fill-opacity="0.8"/>
<path d="M88.8732 259.489L37.3735 258.719L51.0681 265.341L89.0048 262.853L88.8732 259.489Z" fill="url(#paint41_linear_318_465)"/>
<path d="M35.556 260.09C35.556 261.055 36.1592 261.918 37.0649 262.248L53.5207 268.712L53.5957 264.231L37.3735 258.719C36.4632 258.456 35.556 259.141 35.556 260.09Z" fill="url(#paint42_linear_318_465)"/>
<path d="M43.486 257.037C43.1699 256.966 45.0258 253.261 46.4827 253.689C47.9394 254.116 55.0651 258.254 55.7128 259.958C56.3605 261.661 56.3605 261.661 56.3605 261.661C56.3605 261.661 53.2522 261.905 51.3246 261.256C49.3969 260.607 46.0562 257.611 43.486 257.037Z" fill="url(#paint43_linear_318_465)"/>
<path d="M54.9619 232.79L51.3317 265.906C51.2065 267.048 52.8031 268.751 53.9492 268.697L107.203 265.421C108.078 265.379 108.806 264.734 108.954 263.869L115.638 231.885C115.838 230.721 113.749 229.518 112.571 229.551L56.7651 231.124C55.8331 231.15 55.0635 231.861 54.9619 232.79Z" fill="url(#paint44_linear_318_465)"/>
<path d="M56.179 233.754L52.5488 266.871C52.4237 268.013 53.3469 268.998 54.4929 268.944L108.42 266.386C109.295 266.344 110.023 265.699 110.171 264.834L115.681 232.703C115.881 231.539 114.967 230.483 113.789 230.516L57.9822 232.089C57.0504 232.115 56.2805 232.826 56.179 233.754Z" fill="url(#paint45_linear_318_465)"/>
<path opacity="0.3" d="M87.8448 258.627C83.1361 256.628 84.7981 252.815 79.2377 248.063C71.9023 241.795 64.4254 244.514 61.808 239.655C60.9929 238.142 60.6036 235.787 62.0235 231.977L57.9824 232.09C57.0505 232.116 56.2806 232.828 56.1791 233.756L52.5489 266.873C52.424 268.015 53.3473 268.999 54.493 268.945L108.42 266.388C109.295 266.346 110.023 265.701 110.172 264.836L110.932 260.402C109.296 259.49 107.34 258.66 105.059 258.196C97.1475 256.588 93.2658 260.929 87.8448 258.627Z" fill="url(#paint46_linear_318_465)"/>
<path d="M111.817 261.754C111.905 261.487 111.719 261.212 111.439 261.198C110.299 261.14 107.656 261.116 106.197 262.011C104.301 263.175 101.85 265.298 103.914 266.369L105.841 267.369C105.93 267.415 106.026 267.43 106.123 267.408C106.808 267.257 109.691 266.617 110.006 266.457C110.293 266.313 111.392 263.045 111.817 261.754Z" fill="url(#paint47_linear_318_465)"/>
<path d="M46.4262 193.244C46.455 196.679 46.0725 199.403 45.7108 201.268C45.2964 203.405 44.9977 203.957 44.6166 204.405C44.0428 205.08 43.1734 205.646 38.2613 206.866C35.5883 207.53 35.2444 207.512 35.1853 207.778C34.8974 209.074 42.1864 213.493 49.7168 212.428C54.3256 211.776 58.5189 209.142 58.2615 207.759C58.0023 206.366 53.3987 207.113 52.0266 204.594C51.072 202.842 52.1421 200.355 53.4068 198.295C52.1817 195.995 47.6511 195.544 46.4262 193.244Z" fill="url(#paint48_linear_318_465)"/>
<path d="M54.9802 194.602C56.0678 193.154 56.135 190.627 54.8818 189.029C53.8032 187.654 52.1061 187.458 51.0899 187.341C48.1455 187 44.4304 188.232 43.1382 190.947C42.3725 192.556 44.0289 195.899 44.2882 196.5C44.5819 197.18 45.1143 197.413 45.607 197.927C46.2897 198.639 47.3585 199.772 49.103 201.668C49.2386 201.108 49.4447 200.416 49.7721 199.666C49.8982 199.377 50.4043 198.249 51.1703 197.314C52.7049 195.439 53.9492 195.974 54.9802 194.602Z" fill="url(#paint49_linear_318_465)"/>
<path d="M46.6146 200.074C46.6146 200.074 48.5502 203.255 52.404 203.004C55.8545 202.779 56.3598 195.026 54.156 193.381C53.4207 192.832 51.9481 192.604 50.7509 192.941C50.0437 193.139 49.8041 193.433 48.6424 193.735C47.5707 194.014 47.2681 193.895 46.9445 194.168C46.5399 194.509 46.2434 195.345 46.9192 197.612C46.2607 196.944 45.4708 196.688 44.9107 196.952C44.8215 196.995 44.5846 197.156 44.4512 197.401C43.9688 198.287 44.776 199.418 46.6146 200.074Z" fill="url(#paint50_linear_318_465)"/>
<path d="M46.7885 193.704C46.955 193.828 46.4462 194.45 46.4083 195.331C46.3345 197.04 48.061 199.091 49.8222 199.265C50.8635 199.368 51.1496 198.739 52.871 198.557C53.9368 198.444 54.824 198.58 55.382 198.702C55.9229 200.576 55.414 202.445 54.1637 203.312C52.8176 204.245 51.098 203.679 50.3791 203.442C49.8981 203.284 48.3569 202.779 47.5514 201.363C46.7122 199.888 47.5358 198.998 46.5729 198C46.0873 197.497 45.4494 197.279 44.8284 196.304C44.6597 196.039 44.5472 195.805 44.4783 195.648C45.3686 194.702 46.5475 193.524 46.7885 193.704Z" fill="url(#paint51_linear_318_465)"/>
<path d="M54.1293 199.397C54.1293 199.397 53.384 199.787 52.0964 199.714C52.0339 199.711 51.9646 199.729 51.9567 199.762C51.9271 199.884 52.7532 200.433 53.5144 200.219C54.0549 200.066 54.4755 199.553 54.4027 199.423C54.3719 199.368 54.2497 199.375 54.1293 199.397Z" fill="url(#paint52_linear_318_465)"/>
<defs>
<linearGradient id="paint0_linear_318_465" x1="356.069" y1="182.636" x2="81.1287" y2="193.648" gradientUnits="userSpaceOnUse">
<stop stop-color="#7F43F0"/>
<stop offset="0.9964" stop-color="#6165D7"/>
</linearGradient>
<linearGradient id="paint1_linear_318_465" x1="154.291" y1="396.02" x2="156.535" y2="378.107" gradientUnits="userSpaceOnUse">
<stop offset="0.0036" stop-color="#26264F"/>
<stop offset="1" stop-color="#444B8C"/>
</linearGradient>
<linearGradient id="paint2_linear_318_465" x1="145.099" y1="379.693" x2="167.516" y2="339.421" gradientUnits="userSpaceOnUse">
<stop offset="0.0036" stop-color="#26264F"/>
<stop offset="1" stop-color="#444B8C"/>
</linearGradient>
<linearGradient id="paint3_linear_318_465" x1="119.822" y1="360.591" x2="194.003" y2="360.591" gradientUnits="userSpaceOnUse">
<stop offset="0.0036" stop-color="#26264F"/>
<stop offset="1" stop-color="#444B8C"/>
</linearGradient>
<linearGradient id="paint4_linear_318_465" x1="147.227" y1="368.678" x2="169.365" y2="326.165" gradientUnits="userSpaceOnUse">
<stop offset="0.0036" stop-color="#26264F"/>
<stop offset="1" stop-color="#444B8C"/>
</linearGradient>
<linearGradient id="paint5_linear_318_465" x1="116.499" y1="348.064" x2="197.29" y2="348.064" gradientUnits="userSpaceOnUse">
<stop offset="0.0036" stop-color="#26264F"/>
<stop offset="1" stop-color="#444B8C"/>
</linearGradient>
<linearGradient id="paint6_linear_318_465" x1="115.302" y1="333.439" x2="198.523" y2="333.439" gradientUnits="userSpaceOnUse">
<stop offset="0.0036" stop-color="#26264F"/>
<stop offset="1" stop-color="#444B8C"/>
</linearGradient>
<linearGradient id="paint7_linear_318_465" x1="154.846" y1="327.15" x2="163.071" y2="288.714" gradientUnits="userSpaceOnUse">
<stop offset="0.0036" stop-color="#26264F"/>
<stop offset="1" stop-color="#444B8C"/>
</linearGradient>
<linearGradient id="paint8_linear_318_465" x1="31.0664" y1="17.582" x2="297.478" y2="32.7624" gradientUnits="userSpaceOnUse">
<stop stop-color="#9531E0"/>
<stop offset="1" stop-color="#38ECE9"/>
</linearGradient>
<linearGradient id="paint9_linear_318_465" x1="120.161" y1="311.318" x2="141.025" y2="250.485" gradientUnits="userSpaceOnUse">
<stop offset="0.494" stop-color="#EBEFF2"/>
<stop offset="1" stop-color="white"/>
</linearGradient>
<linearGradient id="paint10_linear_318_465" x1="152.238" y1="321.072" x2="174.127" y2="257.251" gradientUnits="userSpaceOnUse">
<stop offset="0.494" stop-color="#EBEFF2"/>
<stop offset="1" stop-color="white"/>
</linearGradient>
<linearGradient id="paint11_linear_318_465" x1="54.7326" y1="118.4" x2="179.117" y2="118.4" gradientUnits="userSpaceOnUse">
<stop offset="0.0036" stop-color="#26264F"/>
<stop offset="1" stop-color="#444B8C"/>
</linearGradient>
<linearGradient id="paint12_linear_318_465" x1="125.378" y1="118.079" x2="179.117" y2="118.079" gradientUnits="userSpaceOnUse">
<stop offset="0.0036" stop-color="#26264F"/>
<stop offset="1" stop-color="#444B8C"/>
</linearGradient>
<linearGradient id="paint13_linear_318_465" x1="173.332" y1="164.771" x2="249.093" y2="164.771" gradientUnits="userSpaceOnUse">
<stop offset="0.0036" stop-color="#26264F"/>
<stop offset="1" stop-color="#444B8C"/>
</linearGradient>
<linearGradient id="paint14_linear_318_465" x1="216.361" y1="164.576" x2="249.093" y2="164.576" gradientUnits="userSpaceOnUse">
<stop offset="0.0036" stop-color="#26264F"/>
<stop offset="1" stop-color="#444B8C"/>
</linearGradient>
<linearGradient id="paint15_linear_318_465" x1="258.478" y1="371.253" x2="261.113" y2="418.591" gradientUnits="userSpaceOnUse">
<stop stop-color="#444B8C"/>
<stop offset="0.9964" stop-color="#26264F"/>
</linearGradient>
<linearGradient id="paint16_linear_318_465" x1="263.435" y1="394.58" x2="262.035" y2="330.667" gradientUnits="userSpaceOnUse">
<stop stop-color="#FFC444"/>
<stop offset="0.9964" stop-color="#F36F56"/>
</linearGradient>
<linearGradient id="paint17_linear_318_465" x1="305.985" y1="368.61" x2="308.62" y2="415.945" gradientUnits="userSpaceOnUse">
<stop stop-color="#444B8C"/>
<stop offset="0.9964" stop-color="#26264F"/>
</linearGradient>
<linearGradient id="paint18_linear_318_465" x1="305.261" y1="393.664" x2="303.862" y2="329.752" gradientUnits="userSpaceOnUse">
<stop stop-color="#FFC444"/>
<stop offset="0.9964" stop-color="#F36F56"/>
</linearGradient>
<linearGradient id="paint19_linear_318_465" x1="243.182" y1="353.042" x2="269.74" y2="317.467" gradientUnits="userSpaceOnUse">
<stop stop-color="#444B8C"/>
<stop offset="0.9964" stop-color="#26264F"/>
</linearGradient>
<linearGradient id="paint20_linear_318_465" x1="196.945" y1="227.182" x2="217.864" y2="283.103" gradientUnits="userSpaceOnUse">
<stop stop-color="#311944"/>
<stop offset="1" stop-color="#893976"/>
</linearGradient>
<linearGradient id="paint21_linear_318_465" x1="262.862" y1="357.462" x2="325.02" y2="299.606" gradientUnits="userSpaceOnUse">
<stop stop-color="#444B8C"/>
<stop offset="0.9964" stop-color="#26264F"/>
</linearGradient>
<linearGradient id="paint22_linear_318_465" x1="306.21" y1="253.668" x2="287.79" y2="227.623" gradientUnits="userSpaceOnUse">
<stop stop-color="#444B8C"/>
<stop offset="0.9964" stop-color="#26264F"/>
</linearGradient>
<linearGradient id="paint23_linear_318_465" x1="246.562" y1="355.563" x2="273.119" y2="319.989" gradientUnits="userSpaceOnUse">
<stop stop-color="#AA80F9"/>
<stop offset="0.9964" stop-color="#6165D7"/>
</linearGradient>
<linearGradient id="paint24_linear_318_465" x1="201.53" y1="232.103" x2="251.298" y2="232.103" gradientUnits="userSpaceOnUse">
<stop stop-color="#AA80F9"/>
<stop offset="0.9964" stop-color="#6165D7"/>
</linearGradient>
<linearGradient id="paint25_linear_318_465" x1="286.383" y1="198.427" x2="301.605" y2="291.336" gradientUnits="userSpaceOnUse">
<stop stop-color="#AA80F9"/>
<stop offset="0.9964" stop-color="#6165D7"/>
</linearGradient>
<linearGradient id="paint26_linear_318_465" x1="267.547" y1="213.948" x2="261.935" y2="200.295" gradientUnits="userSpaceOnUse">
<stop stop-color="#311944"/>
<stop offset="1" stop-color="#893976"/>
</linearGradient>
<linearGradient id="paint27_linear_318_465" x1="278.923" y1="213.096" x2="268.059" y2="198.405" gradientUnits="userSpaceOnUse">
<stop stop-color="#311944"/>
<stop offset="1" stop-color="#893976"/>
</linearGradient>
<linearGradient id="paint28_linear_318_465" x1="266.685" y1="225.544" x2="278.14" y2="295.46" gradientUnits="userSpaceOnUse">
<stop stop-color="#311944"/>
<stop offset="1" stop-color="#893976"/>
</linearGradient>
<linearGradient id="paint29_linear_318_465" x1="51.5884" y1="396.161" x2="40.0631" y2="396.494" gradientUnits="userSpaceOnUse">
<stop stop-color="#444B8C"/>
<stop offset="0.9964" stop-color="#26264F"/>
</linearGradient>
<linearGradient id="paint30_linear_318_465" x1="44.9792" y1="396.325" x2="38.6591" y2="386.546" gradientUnits="userSpaceOnUse">
<stop stop-color="#FFC444"/>
<stop offset="0.9964" stop-color="#F36F56"/>
</linearGradient>
<linearGradient id="paint31_linear_318_465" x1="92.7679" y1="391.322" x2="80.9535" y2="394.564" gradientUnits="userSpaceOnUse">
<stop stop-color="#444B8C"/>
<stop offset="0.9964" stop-color="#26264F"/>
</linearGradient>
<linearGradient id="paint32_linear_318_465" x1="85.4512" y1="393.213" x2="78.2543" y2="383.751" gradientUnits="userSpaceOnUse">
<stop stop-color="#FFC444"/>
<stop offset="0.9964" stop-color="#F36F56"/>
</linearGradient>
<linearGradient id="paint33_linear_318_465" x1="88.7443" y1="371.346" x2="55.9666" y2="297.6" gradientUnits="userSpaceOnUse">
<stop stop-color="#444B8C"/>
<stop offset="0.9964" stop-color="#26264F"/>
</linearGradient>
<linearGradient id="paint34_linear_318_465" x1="68.9442" y1="376.5" x2="27.3778" y2="307.342" gradientUnits="userSpaceOnUse">
<stop stop-color="#444B8C"/>
<stop offset="0.9964" stop-color="#26264F"/>
</linearGradient>
<linearGradient id="paint35_linear_318_465" x1="59.3512" y1="226.406" x2="32.1638" y2="273.985" gradientUnits="userSpaceOnUse">
<stop stop-color="#AA80F9"/>
<stop offset="0.9964" stop-color="#6165D7"/>
</linearGradient>
<linearGradient id="paint36_linear_318_465" x1="29.2884" y1="264.451" x2="69.4649" y2="226.58" gradientUnits="userSpaceOnUse">
<stop stop-color="#AA80F9"/>
<stop offset="0.9964" stop-color="#6165D7"/>
</linearGradient>
<linearGradient id="paint37_linear_318_465" x1="36.9319" y1="271.302" x2="102.368" y2="209.138" gradientUnits="userSpaceOnUse">
<stop stop-color="#F980C1"/>
<stop offset="0.9964" stop-color="#D553B8"/>
</linearGradient>
<linearGradient id="paint38_linear_318_465" x1="58.8085" y1="226.096" x2="31.6211" y2="273.675" gradientUnits="userSpaceOnUse">
<stop stop-color="#AA80F9"/>
<stop offset="0.9964" stop-color="#6165D7"/>
</linearGradient>
<linearGradient id="paint39_linear_318_465" x1="10.3162" y1="245.058" x2="34.982" y2="221.988" gradientUnits="userSpaceOnUse">
<stop stop-color="#AA80F9"/>
<stop offset="0.9964" stop-color="#6165D7"/>
</linearGradient>
<linearGradient id="paint40_linear_318_465" x1="14.9747" y1="249.266" x2="55.1511" y2="211.395" gradientUnits="userSpaceOnUse">
<stop stop-color="#F980C1"/>
<stop offset="0.9964" stop-color="#D553B8" stop-opacity="0.79"/>
</linearGradient>
<linearGradient id="paint41_linear_318_465" x1="70.7736" y1="280.821" x2="64.5223" y2="263.144" gradientUnits="userSpaceOnUse">
<stop stop-color="#311944"/>
<stop offset="1" stop-color="#893976"/>
</linearGradient>
<linearGradient id="paint42_linear_318_465" x1="43.558" y1="255.198" x2="45.851" y2="271.009" gradientUnits="userSpaceOnUse">
<stop stop-color="#311944"/>
<stop offset="1" stop-color="#893976"/>
</linearGradient>
<linearGradient id="paint43_linear_318_465" x1="43.4505" y1="257.68" x2="56.3606" y2="257.68" gradientUnits="userSpaceOnUse">
<stop stop-color="#FFC444"/>
<stop offset="0.9964" stop-color="#F36F56"/>
</linearGradient>
<linearGradient id="paint44_linear_318_465" x1="88.8201" y1="256.583" x2="76.6427" y2="239.325" gradientUnits="userSpaceOnUse">
<stop stop-color="#444B8C"/>
<stop offset="0.9964" stop-color="#26264F"/>
</linearGradient>
<linearGradient id="paint45_linear_318_465" x1="65.5219" y1="285.181" x2="92.1854" y2="231.125" gradientUnits="userSpaceOnUse">
<stop stop-color="#311944"/>
<stop offset="1" stop-color="#893976"/>
</linearGradient>
<linearGradient id="paint46_linear_318_465" x1="52.5374" y1="250.462" x2="110.932" y2="250.462" gradientUnits="userSpaceOnUse">
<stop stop-color="#311944"/>
<stop offset="1" stop-color="#893976"/>
</linearGradient>
<linearGradient id="paint47_linear_318_465" x1="102.755" y1="257.555" x2="114.28" y2="272.137" gradientUnits="userSpaceOnUse">
<stop stop-color="#FFC444"/>
<stop offset="0.9964" stop-color="#F36F56"/>
</linearGradient>
<linearGradient id="paint48_linear_318_465" x1="40.9344" y1="220.014" x2="55.8204" y2="189.079" gradientUnits="userSpaceOnUse">
<stop stop-color="#FFC444"/>
<stop offset="0.9964" stop-color="#F36F56"/>
</linearGradient>
<linearGradient id="paint49_linear_318_465" x1="42.1611" y1="210.703" x2="50.8273" y2="188.494" gradientUnits="userSpaceOnUse">
<stop stop-color="#311944"/>
<stop offset="1" stop-color="#6B3976"/>
</linearGradient>
<linearGradient id="paint50_linear_318_465" x1="49.7481" y1="194.667" x2="51.4511" y2="226.992" gradientUnits="userSpaceOnUse">
<stop stop-color="#FFC444"/>
<stop offset="0.9964" stop-color="#F36F56"/>
</linearGradient>
<linearGradient id="paint51_linear_318_465" x1="44.8286" y1="211.755" x2="53.5037" y2="189.524" gradientUnits="userSpaceOnUse">
<stop stop-color="#311944"/>
<stop offset="1" stop-color="#6B3976"/>
</linearGradient>
<linearGradient id="paint52_linear_318_465" x1="53.3215" y1="198.341" x2="52.8808" y2="202.397" gradientUnits="userSpaceOnUse">
<stop stop-color="#51BDE9"/>
<stop offset="1" stop-color="#5EA4EA"/>
</linearGradient>
</defs>
</svg>
